<svg xmlns="http://www.w3.org/2000/svg" viewBox="0 0 48 44">
  <rect x="3" y="2" width="42" height="4" rx="2" fill="#1E5C45"/>
  <path d="M5 6 L23 6 C 22 16, 19 23, 14 27 C 17 31, 18 36, 18 42 L 8 42 C 9 36, 8 31, 7 27 C 5 20, 5 13, 5 6 Z" fill="#1E5C45"/>
  <path d="M43 6 L25 6 C 26 16, 29 23, 34 27 C 31 31, 30 36, 30 42 L 40 42 C 39 36, 40 31, 41 27 C 43 20, 43 13, 43 6 Z" fill="#1E5C45"/>
  <rect x="9.5" y="25" width="9" height="3.6" rx="1.8" fill="#F4EFE6" transform="rotate(-18 14 27)"/>
  <rect x="29.5" y="25" width="9" height="3.6" rx="1.8" fill="#F4EFE6" transform="rotate(18 34 27)"/>
</svg>
